<svg width="18" height="16" viewBox="0 0 16 14" fill="#E0BEA2" xmlns="http://www.w3.org/2000/svg">
<path d="M8.00061 1.14671C9.76233 -0.435007 12.4848 -0.382508 14.182 1.31771C15.8785 3.01868 15.937 5.72763 14.359 7.49459L7.99911 13.8635L1.64073 7.49459C0.0627627 5.72763 0.122012 3.01418 1.81773 1.31771C3.51645 -0.380258 6.23365 -0.437257 8.00061 1.14671ZM13.12 2.37744C11.995 1.25096 10.1801 1.20521 9.00259 2.26269L8.00136 3.16118L6.99938 2.26344C5.81816 1.20446 4.00694 1.25096 2.87896 2.37894C1.76148 3.49642 1.70523 5.28514 2.73496 6.46711L7.99986 11.7403L13.2648 6.46786C14.2952 5.28514 14.239 3.49867 13.12 2.37744Z" />
</svg>
